<?xml version="1.0" encoding="UTF-8" standalone="no"?>
<svg
   xmlns:dc="http://purl.org/dc/elements/1.1/"
   xmlns:cc="http://creativecommons.org/ns#"
   xmlns:rdf="http://www.w3.org/1999/02/22-rdf-syntax-ns#"
   xmlns:svg="http://www.w3.org/2000/svg"
   xmlns="http://www.w3.org/2000/svg"
   xmlns:sodipodi="http://sodipodi.sourceforge.net/DTD/sodipodi-0.dtd"
   xmlns:inkscape="http://www.inkscape.org/namespaces/inkscape"
   width="210mm"
   height="297mm"
   viewBox="0 0 210 297"
   version="1.1"
   id="svg8"
   inkscape:version="1.0 (4035a4fb49, 2020-05-01)"
   sodipodi:docname="capybara5.svg"
   inkscape:export-filename="C:\Users\adam\Pictures\Art\Capybara\rev2\capybara5-circle.png"
   inkscape:export-xdpi="400.00699"
   inkscape:export-ydpi="400.00699">
  <defs
     id="defs2" />
  <sodipodi:namedview
     id="base"
     pagecolor="#ffffff"
     bordercolor="#666666"
     borderopacity="1.0"
     inkscape:pageopacity="0.0"
     inkscape:pageshadow="2"
     inkscape:zoom="0.23326238"
     inkscape:cx="1338.4142"
     inkscape:cy="855.25219"
     inkscape:document-units="mm"
     inkscape:current-layer="g847"
     inkscape:document-rotation="0"
     showgrid="false"
     inkscape:window-width="1920"
     inkscape:window-height="986"
     inkscape:window-x="-11"
     inkscape:window-y="-11"
     inkscape:window-maximized="1" />
  <metadata
     id="metadata5">
    <rdf:RDF>
      <cc:Work
         rdf:about="">
        <dc:format>image/svg+xml</dc:format>
        <dc:type
           rdf:resource="http://purl.org/dc/dcmitype/StillImage" />
        <dc:title />
      </cc:Work>
    </rdf:RDF>
  </metadata>
  <g
     inkscape:label="Layer 1"
     inkscape:groupmode="layer"
     id="layer1">
    <g
       id="g847"
       transform="matrix(3.7213605,0,0,3.7213605,-285.88893,-305.47602)"
       inkscape:export-xdpi="400.00699"
       inkscape:export-ydpi="400.00699"
       inkscape:export-filename="C:\Users\adam\g847.png">
      <circle
         style="fill:#fed9f1;fill-opacity:1;stroke-width:0.26005;stop-color:#000000"
         id="path837"
         cx="105.3932"
         cy="122.59351"
         r="33.406635" />
      <path
         id="path857"
         style="fill:#fda9e0;stroke-width:0.0423333"
         d="m 104.13033,151.93217 c -2.6862,0.0942 -5.570401,-0.45356 -8.033632,-1.49469 -3.858894,-1.31201 -6.573959,-4.53753 -8.397376,-8.11773 -1.960001,-3.33796 -2.339171,-7.41843 -1.883095,-11.20008 0.86599,-4.04804 3.203095,-8.20597 6.780077,-10.43462 -1.032809,-0.0596 -2.618702,-0.30158 -3.648464,-1.73128 -1.062345,-0.29479 -2.167121,-0.82936 -2.834136,-1.48493 -1.63306,-1.60504 -2.551255,-3.88108 -2.831086,-6.08091 -0.337668,-2.6545 0.323955,-5.55385 2.462507,-7.4615 3.230208,-2.88144 6.924499,-5.494352 10.599761,-7.736952 2.853841,-1.741379 5.555214,-4.201467 9.106954,-3.895683 1.73589,0.149449 1.67405,1.910974 3.24908,2.138128 1.05091,0.151565 1.2655,1.068121 1.81809,1.156835 4.64738,0.746103 8.55612,1.766928 12.36148,4.515572 0.99842,1.12128 -2.33615,0.51415 -0.5871,1.74042 1.74905,1.22627 4.01294,3.91718 5.05354,6.16345 0.49625,1.07122 -2.11544,-0.11525 -0.6491,1.94545 1.70712,2.39907 4.02004,7.27999 3.9406,7.86144 -0.0795,0.58145 -2.24158,-1.01561 -1.39383,0.96619 0.84774,1.98179 3.06467,12.62832 1.48894,11.37265 -1.57574,-1.25567 -1.18281,-0.0763 -1.3571,1.208 -0.17429,1.28428 -1.60027,8.1599 -2.63554,6.91421 -1.04263,-1.25454 -1.18444,-0.23266 -1.93815,1.01 -1.07371,1.77027 -2.20933,3.29582 -3.70272,4.18238 -0.21348,0.12673 -0.47551,0.47258 -0.47864,0.75458 -0.0287,2.58604 -3.38879,4.18921 -5.37491,5.25341 -3.50048,1.49652 -7.29793,2.47919 -11.11615,2.45566 z m 1.01783,-2.46976 c 4.17113,-0.47202 7.89301,-1.54246 11.55937,-3.56964 1.55423,-0.58666 0.8519,-2.08287 -0.0552,-3.05914 0.3333,-1.75993 2.04189,-2.96265 3.07418,-2.81606 2.16711,-0.6688 3.32032,-2.01081 4.24763,-4.02171 0.50747,-1.26091 1.6004,-3.93292 2.44059,-0.71945 1.45603,-2.46975 0.51615,-5.65344 0.65968,-8.44386 -0.65828,-2.42722 -0.0682,-1.7722 1.58579,-1.22906 -0.0461,-3.70176 -2.15872,-6.70414 -3.59277,-10.0615 0.80469,-0.60491 3.24013,0.97469 2.09524,-0.75549 -1.23815,-2.54445 -2.97591,-5.45296 -4.58988,-7.76341 1.17253,-0.1932 -0.56945,-1.87803 -1.25277,-2.94064 -1.07593,-1.45551 -5.40021,-1.82352 -3.58073,-2.98562 -3.29355,-1.744354 -5.66854,-3.358045 -9.35156,-3.499496 -0.30881,-1.741761 -3.62443,0.854806 -3.04444,-2.188456 -2.21998,-0.262092 -3.8043,0.813311 -5.810294,1.686151 -3.106125,1.70954 -5.725589,3.669701 -8.62372,5.701721 -2.057281,1.78496 -5.236017,2.88991 -5.87156,5.76492 -0.571531,2.92844 1.14134,5.28381 2.916982,7.49958 2.042224,1.44519 4.06857,3.11506 6.669958,1.96767 2.514286,-0.49199 4.699389,-3.37993 8.703254,-0.87897 0.94008,2.87316 -4.032899,2.26748 -5.796466,3.57986 -2.606914,0.83832 -5.139907,1.76347 -6.712827,3.96501 -2.418142,3.08037 -3.769296,7.11 -3.234613,11.03671 0.765173,5.29462 4.119374,10.23385 8.788121,12.86794 2.775364,1.29369 5.733505,1.1479 8.775995,0.86294 z"
         sodipodi:nodetypes="ccccccsssssssczsszzzzssssccccccccccccccccccccccccccccc"
         inkscape:export-xdpi="400.00699"
         inkscape:export-ydpi="400.00699"
         inkscape:export-filename="C:\Users\adam\path857.png" />
      <path
         id="path853"
         style="fill:#78380e;stroke-width:0.0423333"
         d="m 113.42107,145.14554 c -1.7452,-0.73674 0.1475,-1.46203 -2.30181,-0.84055 -2.44931,0.62149 -6.27233,0.719 -9.20688,-0.83014 -2.088392,-1.48763 -4.300085,-3.89594 -5.014477,-6.41782 -0.656438,-2.11324 -0.925255,-4.58091 -0.443196,-6.74819 0.327468,-2.11809 1.091103,-4.13769 2.409427,-5.84063 1.633696,-2.42239 5.219406,-3.31559 7.575406,-4.83361 2.97642,-1.54958 4.39155,-4.73547 4.7695,-7.95855 0.0937,-0.90599 0.37319,-0.2184 -0.0818,-0.90856 0.007,1.75435 -0.0702,3.79674 -1.61362,5.82239 -1.17121,0.55316 -4.31602,0.0893 -5.31526,-1.04705 -1.90872,-0.95159 -4.348893,-0.22358 -6.171622,0.54647 -1.838242,0.88017 -4.2046,1.13583 -6.093454,0.18312 -1.754316,-1.09909 -3.249992,-2.86821 -3.924823,-4.97533 -0.96279,-1.94505 0.731193,-4.0187 2.058454,-5.40832 1.49226,-1.59329 2.628958,-3.66963 4.530562,-4.79506 1.727312,-1.02357 3.297328,-2.007807 5.054592,-2.966987 1.313261,-0.741533 3.289451,-2.9743 4.803051,-2.205726 0.50044,0.606844 0.74602,2.070149 0.90647,2.478217 -0.94257,0.04675 -3.44174,1.59908 -1.36237,0.493946 2.09262,-1.47209 3.80432,-0.514946 5.88152,-0.362808 2.06381,0.319691 6.42809,1.882808 4.74799,3.563638 1.83838,1.0207 1.96179,-0.2383 1.57177,1.17538 1.05656,-1.04934 0.17171,0.41438 0.53171,0.005 0.68777,0.63583 4.55905,2.94422 1.56731,2.61282 0.4711,0.95185 1.24067,1.93004 0.71813,3.41903 0.39809,0.64396 -0.15031,1.90885 0.0621,2.15823 0.0785,0.0921 -0.005,-0.24965 0.47391,-0.75212 0.66876,-1.03604 1.93832,-2.2428 4.06766,1.33252 1.86425,1.67789 -3.99505,0.047 -2.22155,1.48696 1.46654,2.01736 1.0372,3.55005 0.11729,5.91342 1.15147,-0.24145 2.28027,-3.0164 2.44147,-0.66661 0.17925,0.67235 1.99926,3.02001 0.96514,2.56051 0.89768,1.52827 -0.16465,3.36797 -0.84195,4.62415 1.81571,-1.05855 0.67742,4.25712 0.18904,4.08759 -0.20954,0.21288 -0.21723,1.04699 -0.74692,1.92504 -0.22516,2.46202 -1.09952,6.79016 -2.50687,6.6891 -1.13538,-0.50934 -0.42051,-3.76816 -0.66602,-5.57648 -0.38923,-2.76243 -1.83993,-5.48013 -4.75247,-6.08785 -1.43853,-0.6655 -3.41597,0.19474 -3.98828,1.12753 1.95689,-1.34953 5.03807,0.005 4.9668,2.63068 0.19361,1.18418 -0.82337,3.02349 0.82453,0.92372 0.95726,-1.94157 1.43495,2.63695 1.83317,3.52735 0.61826,2.70489 -1.2907,5.43724 -2.15128,7.58344 0.8508,0.72894 1.13875,2.32738 -0.63882,2.56058 -0.74344,0.35008 -2.00135,0.22328 -2.76048,-0.0972 z m -23.6834,-35.72428 c 0,-0.36105 -1.765448,0.11118 0.238111,0.13381 l -0.361747,0.0657 0.123636,-0.19953 z m 7.01579,-3.34464 c 0.533891,-0.0729 0.725347,1.07591 2.653582,0.38717 0.608328,-0.85946 1.517388,-2.61517 0.460175,-2.50573 -0.978522,0.4051 -6.184202,3.64158 -3.113757,2.11856 z m 9.10664,-2.25129 c -0.1374,0.16681 2.94808,-2.24457 0.99118,-2.55789 1.86833,-2.334512 -1.39728,-1.811642 -2.35094,-0.79096 2.54487,-0.77801 2.52087,-1.458558 1.24249,0.93749 1.74691,0.28416 1.09818,1.22044 0.17931,2.33604 z"
         sodipodi:nodetypes="szccccccccccccccccccccccccsccccccccccccccccccssscccsccccscccss"
         inkscape:export-xdpi="400.00699"
         inkscape:export-ydpi="400.00699"
         inkscape:export-filename="C:\Users\adam\path857.png" />
      <path
         id="path855"
         style="fill:#a96d45;stroke-width:0.0423333"
         d="m 117.54632,132.03325 c -0.40607,0.97779 -1.84712,1.07246 -1.84712,1.07246 0,0 1.71738,-2.87251 -0.73435,-4.61972 -1.76902,-1.26067 -3.11544,-0.20693 -3.68448,-0.18588 0.694,-0.74662 1.81755,-1.08326 2.81173,-1.05777 2.47641,0.0635 4.72578,2.18454 5.23616,4.5303 0.46096,1.61589 0.26325,5.85437 -1.41435,6.9619 0.75716,-3.10367 0.33123,-5.75518 -0.36759,-6.70129 z m 7.33316,-1.21108 c -0.76779,-0.45597 -1.64735,-0.68568 -1.29531,-1.23552 0.30382,-0.51032 0.52702,-2.65525 0.1329,-3.20486 -0.28701,0.10924 -1.02331,0.78018 -1.70316,0.72004 1.15564,-1.89018 1.34549,-3.35197 1.08577,-5.34543 2.6008,1.82211 2.56948,5.1236 2.60127,7.6853 -0.0653,0.15281 -0.60862,2.76981 -0.82155,1.38018 z m -0.19402,-8.16943 c -0.32575,-0.86484 -0.50405,-3.00718 -1.64749,-4.2381 -0.5205,0.75578 -0.92885,1.35707 -1.85094,1.44798 1.12401,-3.33069 0.57514,-5.13875 -0.96836,-7.02632 2.87154,1.01627 3.8349,2.71793 4.67733,5.1159 0.62466,1.54566 1.93374,4.04211 1.59848,4.5992 -0.35322,1.42613 -0.83769,2.68012 -1.80902,0.10134 z m -2.14225,-9.399 c -0.62606,-1.43992 -0.96701,-2.06152 -2.04328,-3.06928 -0.16651,0.78097 -0.98594,1.55233 -1.76687,1.55233 0.66559,-2.08785 0.25071,-4.7326 -1.17846,-5.87935 0.99055,-0.27662 1.75564,0.83731 2.16995,1.34681 1.67421,1.44343 2.83889,3.42927 3.95575,5.32238 0.24041,0.33052 -0.56089,1.02519 -1.13709,0.72711 z m -6.5265,-7.27954 c 0,0 0.33666,-2.40996 -2.10219,-4.08969 1.62803,-0.12477 3.30484,0.79493 4.53537,1.59298 0.86015,0.48618 3.24041,0.95721 2.26017,2.22348 -0.93871,0.77939 -1.36183,1.40637 -1.85861,0.14345 -0.28954,-0.7361 -1.5384,-1.72734 -2.0009,-2.12488 0.0849,1.1304 -0.11428,1.98192 -0.83384,2.25466 z m -10.43008,-1.83304 c 0.27018,-0.61072 0.42715,-3.12746 1.52693,-2.1797 -0.33061,0.85555 -0.78292,1.64084 -1.52693,2.1797 z m 0.15234,-2.68993 c -0.18654,-0.6162 0.80301,-1.46712 0.79083,-0.92672 -0.2624,0.29998 -0.0351,0.52659 -0.79083,0.92672 z m 8.66466,-0.10276 c -0.67883,-0.94174 -1.34832,-1.444324 -3.49397,-2.299864 1.66398,0.252008 3.23082,1.041494 4.87263,1.422284 -0.10865,0.52078 -0.93858,0.75533 -1.37866,0.87758 z"
         sodipodi:nodetypes="ccscscccccccccccscccccscccccccccccscccccccccccc"
         inkscape:export-xdpi="400.00699"
         inkscape:export-ydpi="400.00699"
         inkscape:export-filename="C:\Users\adam\path857.png" />
      <path
         id="path851"
         style="fill:#4f2509;stroke-width:0.0423333"
         d="m 102.79286,147.81716 c -1.96639,0.32213 -3.903842,-0.56227 -5.697315,-1.40599 -2.562851,-1.84759 -5.255081,-4.7796 -6.293956,-7.76432 -0.698308,-1.81504 -0.198785,-4.13693 -0.163225,-6.02469 0.376075,-3.43641 2.129173,-7.16202 4.895817,-9.30396 1.813842,-1.3459 4.267761,-2.12545 6.373979,-2.81707 1.30037,-0.28232 2.80403,-0.12073 4.03218,-0.6362 -1.56152,1.27819 -3.55672,1.85317 -5.08694,3.24994 -1.63934,1.49638 -2.719033,3.45847 -3.288476,5.5125 -1.136172,4.09826 -0.840889,8.50068 1.807938,11.69409 1.250788,1.44291 3.464508,3.054 5.388198,3.49915 4.15641,0.96182 5.91781,0.17307 8.19231,-0.52856 -1.60644,3.06159 -5.26424,4.04255 -8.18442,4.72003 -0.62156,0.0802 -1.73971,0.15212 -1.90717,-0.20621 z m 8.88464,-2.05838 c 1.3527,-2.02728 0.18722,-1.53833 1.78398,-0.80856 1.59676,0.72977 4.99496,-0.72632 2.53023,0.68358 -1.44217,0.50653 -6.12905,2.84484 -5.29824,1.59972 z m -19.276709,-0.20857 c -0.335665,-0.34955 0.412507,0.35127 0,0 z M 104.1092,118.70593 c -1.27011,-1.44914 -0.66808,-3.96257 -2.49469,-4.07648 0.91005,-0.0767 2.75345,0.51928 3.8124,1.20997 1.05895,0.69069 3.40733,0.24509 3.79015,0.0244 -0.76864,0.857 -4.06319,3.49249 -5.10786,2.84207 z m -11.549914,-1.19145 c -1.485959,-1.03616 -4.742394,-1.837 -5.650699,-3.63554 -0.93677,-1.8549 -1.171972,-4.49571 -0.0051,-6.32264 1.297628,-1.64677 5.230347,-4.61054 6.469105,-5.06055 0.93172,-0.57414 -2.402313,2.43302 -2.665492,2.7194 -1.272611,1.41184 -3.004379,3.71567 -2.49544,5.44273 0.522064,1.7716 0.946815,3.31007 3.049516,3.70157 1.10181,1.46416 4.28029,1.61353 6.084002,1.50664 -0.650413,0.91339 -3.322498,1.81632 -4.785866,1.64839 z m -2.610624,-14.7448 c 0.240657,-0.26756 0.448029,-0.38002 0,0 z"
         sodipodi:nodetypes="sccccccsscscccsszcsscccczcccccccsscccccc"
         inkscape:export-xdpi="400.00699"
         inkscape:export-ydpi="400.00699"
         inkscape:export-filename="C:\Users\adam\path857.png" />
      <path
         sodipodi:nodetypes="cscscc"
         style="fill:#ffffff;fill-opacity:1;stroke:none;stroke-width:0.0848131px;stroke-linecap:butt;stroke-linejoin:miter;stroke-opacity:1"
         d="m 97.515791,104.92507 c 0,0 1.381916,-0.82754 2.980759,-0.94805 1.59885,-0.12052 -1.293536,2.55493 -1.293536,2.55493 0,0 -0.503022,0.22604 -1.1735,0.10055 -0.692497,-0.12961 -1.196646,-1.03254 -1.196646,-1.03254 z"
         id="path866"
         inkscape:export-xdpi="400.00699"
         inkscape:export-ydpi="400.00699"
         inkscape:export-filename="C:\Users\adam\path857.png" />
      <path
         id="path849"
         style="fill:#000000;stroke-width:0.0423333"
         d="m 101.66646,150.10815 c -3.112186,-0.44638 -6.226931,-1.5078 -8.463019,-3.81833 -3.548589,-3.39884 -6.056065,-8.23551 -5.706474,-13.24384 0.252559,-3.61822 1.818451,-6.93188 4.485309,-9.70502 2.666858,-2.77314 6.535764,-4.00692 10.267684,-4.91501 -0.12963,-0.0829 -0.24745,0.004 -0.58173,-0.33651 -0.15311,-0.15581 -0.38041,-0.49953 -0.30071,-0.89502 0.3391,-1.68264 -2.834787,-0.38046 -4.370365,0.40225 -2.258644,0.91574 -4.94851,2.32689 -7.363259,-0.0962 -2.316806,-0.65237 -3.439217,-2.6092 -4.331752,-4.61705 -1.039533,-2.33853 -0.547229,-5.35453 1.310099,-7.23135 1.620908,-1.75367 3.660434,-3.10128 5.529343,-4.58735 2.883407,-1.993041 6.651039,-4.444356 9.750414,-6.123299 0.99855,-0.540913 4.39554,-1.877999 4.33847,1.168588 1.24791,-0.208248 1.98263,0.26928 2.29636,0.99831 3.11414,0.205015 8.23088,1.58098 10.9326,3.059601 -0.38898,0.15951 -0.91761,0.43095 -1.1931,0.90239 2.45293,1.17826 5.41787,4.02932 6.88597,6.28092 -1.00027,-0.12445 -1.61051,-0.0447 -2.14548,0.13598 0.2393,0.58508 1.8624,2.50903 2.59301,3.67873 0.73061,1.1697 2.2612,3.50925 2.64907,4.95526 -0.87681,-0.24296 -1.4488,-0.29293 -2.29701,-0.0491 1.62777,3.19364 3.15513,7.73581 3.40841,11.64844 -0.54121,-0.42249 -1.09023,-0.76467 -1.81562,-0.87581 0.14358,2.77702 0.22251,6.03382 -1.1148,8.50441 -0.54769,-0.81701 -0.78698,-1.01401 -1.2432,-1.42626 -0.644,2.70574 -2.43427,5.84471 -4.49101,7.73456 -0.19968,-0.58939 -0.30964,-1.00216 -0.80756,-1.454 -0.42289,0.50977 -1.02788,1.06645 -1.71619,2.00845 1.57979,0.99402 0.96024,2.96494 -0.64242,4.06654 -1.60266,1.1016 -4.47187,2.13058 -7.01239,2.99312 -2.89852,0.69531 -5.85626,1.09427 -8.85073,0.83659 z m 11.28691,-6.8161 c 0.58795,1.10757 -1.29877,3.33837 -1.43476,3.63157 1.72778,-0.37254 2.5534,-0.8659 3.8329,-1.33211 1.2795,-0.46621 1.68191,-1.234 1.64165,-1.74568 -0.0403,-0.51168 -0.50703,-0.97179 -1.35732,-1.358 1.23209,-1.97324 2.29026,-3.7632 3.01404,-5.64655 0.75029,-2.2022 0.73694,-6.79728 -2.10683,-8.70866 -1.49563,-1.17245 -4.26054,-0.83685 -5.26268,0.1675 1.25675,-2.43495 5.13913,-2.15542 7.18331,-0.43916 3.29104,3.12059 2.8725,8.99373 2.39161,10.39594 1.83355,-2.34211 2.6495,-6.04306 2.00557,-9.14921 1.54504,0.63496 2.07569,1.38081 2.07569,1.38081 0,0 0.68749,-5.71614 -1.83687,-8.7321 1.17491,-0.14978 2.57626,0.33912 3.07069,0.63412 -0.41954,-1.66242 -2.16621,-6.94301 -5.9517,-9.55422 0.91181,-0.31656 2.63503,-0.48633 3.35723,-0.30293 -0.26372,-0.7266 -1.67601,-2.68927 -2.49873,-3.72864 -1.0374,-1.31058 -2.32516,-2.213 -3.52264,-2.94726 1.4919,-0.54379 2.21266,-0.61337 3.1698,-0.51584 -1.86031,-1.65054 -4.48416,-2.93953 -6.80981,-3.45712 0.45131,-0.87506 1.25817,-1.34694 1.25817,-1.34694 0,0 -5.17652,-1.963547 -7.68031,-2.067318 -2.50379,-0.103771 -5.22412,1.244124 -5.22412,1.244124 1.24851,-1.528005 2.44667,-1.897336 2.44667,-1.897336 0,0 -0.0691,-0.290484 -0.50682,-0.728322 0.29989,-0.187168 0.29481,-0.654501 0.0825,-0.884067 -0.73434,-0.793973 -4.926262,2.457459 -6.200485,3.2052 -1.964472,1.125759 -3.867105,2.427709 -5.654916,3.859829 -1.848167,1.53214 -4.198173,2.75899 -5.338796,4.91192 -1.279846,2.41571 -0.489971,4.6935 1.226704,6.55721 0.552075,0.59936 1.460336,0.91884 2.230061,1.07471 0.935835,1.32585 3.819691,1.2908 5.737412,0.40934 2.053319,-0.94378 5.25985,-2.3105 6.46426,-1.33064 0.70625,0.57458 0.37135,1.31611 0.785,1.98798 0.41366,0.67187 1.47887,0.88558 2.52654,0.53037 2.70215,-0.91617 6.16878,-3.75441 4.20481,-8.67262 0.30944,-0.0164 2.41098,1.69165 1.96397,4.91821 -0.49313,3.55943 -3.41946,5.19832 -6.87677,6.5475 -3.70168,1.48519 -8.193598,1.79186 -10.894215,5.09075 -2.539622,2.88427 -3.905438,5.89473 -3.740711,9.66734 -0.04222,3.51016 2.666254,7.51463 5.044313,9.89739 1.878903,1.80434 4.556453,2.55903 7.056883,2.91898 4.43091,0.25778 8.28678,-1.90531 10.1287,-4.48607 z M 89.437856,109.83201 c -2.165754,-1.0148 2.18561,-2.19177 0.493949,0.003 -0.07441,0.0965 -0.339127,0.0695 -0.493949,-0.003 z m 6.108416,-3.23139 c 0.832049,-2.3129 3.93704,-2.6855 5.816708,-2.99785 0.21884,0.89748 -1.439549,2.98043 -2.13383,3.02516 -0.02609,0.002 -0.08195,0.0127 -0.113272,-0.0587 -0.04187,-0.0955 0.229853,-0.25586 0.335315,-0.3505 0.618667,-0.55519 1.206417,-1.39338 1.163877,-1.88874 -0.58298,-0.0283 -1.727716,0.13583 -2.116759,0.58695 0.41543,0.27561 0.506473,0.77218 0.25788,1.30228 -0.248593,0.5301 -0.99755,0.72278 -2.002731,-0.14264 -0.338153,0.20472 -0.678769,0.553 -1.207188,0.52399 z m 10.192698,-5.14939 c 2.20686,-2.014733 -1.38522,-0.49918 -2.15896,-0.3762 0.2839,-1.330395 3.33593,-1.857009 3.61816,-1.551502 0.26,0.281458 0.39219,0.917192 -0.17998,1.650732 2.83559,-0.0896 -0.67166,2.93328 -1.43173,2.9669 1.11509,-1.3641 2.0474,-2.38305 0.15234,-2.68993 z"
         sodipodi:nodetypes="ccszcssccsccscccccczccccccccczccccczzccccccccccccscccczcccsccssscszscscccccccsccsczccccscccccsccc"
         inkscape:export-xdpi="400.00699"
         inkscape:export-ydpi="400.00699"
         inkscape:export-filename="C:\Users\adam\path857.png" />
    </g>
  </g>
</svg>
