<?xml version="1.0" encoding="utf-8"?>
<!-- Generator: Adobe Illustrator 25.0.0, SVG Export Plug-In . SVG Version: 6.00 Build 0)  -->
<svg version="1.1"
	 id="svg8" inkscape:export-filename="C:\Users\adam\Pictures\Art\Capybara\rev2\capybara5-circle.png" inkscape:export-xdpi="400.00699" inkscape:export-ydpi="400.00699" inkscape:version="1.0 (4035a4fb49, 2020-05-01)" xmlns:cc="http://creativecommons.org/ns#" xmlns:dc="http://purl.org/dc/elements/1.1/" xmlns:inkscape="http://www.inkscape.org/namespaces/inkscape" xmlns:rdf="http://www.w3.org/1999/02/22-rdf-syntax-ns#" xmlns:sodipodi="http://sodipodi.sourceforge.net/DTD/sodipodi-0.dtd" xmlns:svg="http://www.w3.org/2000/svg"
	 xmlns="http://www.w3.org/2000/svg" xmlns:xlink="http://www.w3.org/1999/xlink" x="0px" y="0px" viewBox="0 0 595.3 841.9"
	 style="enable-background:new 0 0 595.3 841.9;" xml:space="preserve">
<style type="text/css">
	.st0{fill:#FFFFFF;}
</style>
<sodipodi:namedview  bordercolor="#666666" borderopacity="1.0" id="base" inkscape:current-layer="g847" inkscape:cx="1338.4142" inkscape:cy="855.25219" inkscape:document-rotation="0" inkscape:document-units="mm" inkscape:pageopacity="0.0" inkscape:pageshadow="2" inkscape:window-height="986" inkscape:window-maximized="1" inkscape:window-width="1920" inkscape:window-x="-11" inkscape:window-y="-11" inkscape:zoom="0.23326238" pagecolor="#ffffff" showgrid="false">
	</sodipodi:namedview>
<g id="layer1" inkscape:groupmode="layer" inkscape:label="Layer 1">
	
		<g id="g847" transform="matrix(3.7213605,0,0,3.7213605,-285.88893,-305.47602)" inkscape:export-filename="C:\Users\adam\g847.png" inkscape:export-xdpi="400.00699" inkscape:export-ydpi="400.00699">
		<circle id="path837" class="st0" cx="157.8" cy="196.9" r="94.7"/>
		
			<path id="path857" inkscape:export-filename="C:\Users\adam\path857.png" inkscape:export-xdpi="400.00699" inkscape:export-ydpi="400.00699" sodipodi:nodetypes="ccccccsssssssczsszzzzssssccccccccccccccccccccccccccccc" d="
			M154.2,280.1c-7.6,0.3-15.8-1.3-22.8-4.2c-10.9-3.7-18.6-12.9-23.8-23c-5.6-9.5-6.6-21-5.3-31.7c2.5-11.5,9.1-23.3,19.2-29.6
			c-2.9-0.2-7.4-0.9-10.3-4.9c-3-0.8-6.1-2.4-8-4.2c-4.6-4.5-7.2-11-8-17.2c-1-7.5,0.9-15.7,7-21.2c9.2-8.2,19.6-15.6,30-21.9
			c8.1-4.9,15.7-11.9,25.8-11c4.9,0.4,4.7,5.4,9.2,6.1c3,0.4,3.6,3,5.2,3.3c13.2,2.1,24.3,5,35,12.8c2.8,3.2-6.6,1.5-1.7,4.9
			c5,3.5,11.4,11.1,14.3,17.5c1.4,3-6-0.3-1.8,5.5c4.8,6.8,11.4,20.6,11.2,22.3c-0.2,1.6-6.4-2.9-4,2.7c2.4,5.6,8.7,35.8,4.2,32.2
			s-3.4-0.2-3.8,3.4c-0.5,3.6-4.5,23.1-7.5,19.6c-3-3.6-3.4-0.7-5.5,2.9c-3,5-6.3,9.3-10.5,11.9c-0.6,0.4-1.3,1.3-1.4,2.1
			c-0.1,7.3-9.6,11.9-15.2,14.9C175.8,277.4,165.1,280.1,154.2,280.1L154.2,280.1z M157.1,273.1c11.8-1.3,22.4-4.4,32.8-10.1
			c4.4-1.7,2.4-5.9-0.2-8.7c0.9-5,5.8-8.4,8.7-8c6.1-1.9,9.4-5.7,12-11.4c1.4-3.6,4.5-11.1,6.9-2c4.1-7,1.5-16,1.9-23.9
			c-1.9-6.9-0.2-5,4.5-3.5c-0.1-10.5-6.1-19-10.2-28.5c2.3-1.7,9.2,2.8,5.9-2.1c-3.5-7.2-8.4-15.5-13-22c3.3-0.5-1.6-5.3-3.6-8.3
			c-3-4.1-15.3-5.2-10.2-8.5c-9.3-4.9-16.1-9.5-26.5-9.9c-0.9-4.9-10.3,2.4-8.6-6.2c-6.3-0.7-10.8,2.3-16.5,4.8
			c-8.8,4.8-16.2,10.4-24.4,16.2c-5.8,5.1-14.8,8.2-16.6,16.3c-1.6,8.3,3.2,15,8.3,21.3c5.8,4.1,11.5,8.8,18.9,5.6
			c7.1-1.4,13.3-9.6,24.7-2.5c2.7,8.1-11.4,6.4-16.4,10.1c-7.4,2.4-14.6,5-19,11.2c-6.9,8.7-10.7,20.2-9.2,31.3
			c2.2,15,11.7,29,24.9,36.5C140.1,274.3,148.5,273.9,157.1,273.1L157.1,273.1z"/>
		
			<path id="path853" inkscape:export-filename="C:\Users\adam\path857.png" inkscape:export-xdpi="400.00699" inkscape:export-ydpi="400.00699" sodipodi:nodetypes="szccccccccccccccccccccccccsccccccccccccccccccssscccsccccscccss" d="
			M180.6,260.8c-4.9-2.1,0.4-4.1-6.5-2.4c-6.9,1.8-17.8,2-26.1-2.4c-5.9-4.2-12.2-11-14.2-18.2c-1.9-6-2.6-13-1.3-19.1
			c0.9-6,3.1-11.7,6.8-16.6c4.6-6.9,14.8-9.4,21.5-13.7c8.4-4.4,12.4-13.4,13.5-22.6c0.3-2.6,1.1-0.6-0.2-2.6c0,5-0.2,10.8-4.6,16.5
			c-3.3,1.6-12.2,0.3-15.1-3c-5.4-2.7-12.3-0.6-17.5,1.5c-5.2,2.5-11.9,3.2-17.3,0.5c-5-3.1-9.2-8.1-11.1-14.1
			c-2.7-5.5,2.1-11.4,5.8-15.3c4.2-4.5,7.5-10.4,12.8-13.6c4.9-2.9,9.3-5.7,14.3-8.4c3.7-2.1,9.3-8.4,13.6-6.3
			c1.4,1.7,2.1,5.9,2.6,7c-2.7,0.1-9.8,4.5-3.9,1.4c5.9-4.2,10.8-1.5,16.7-1c5.9,0.9,18.2,5.3,13.5,10.1c5.2,2.9,5.6-0.7,4.5,3.3
			c3-3,0.5,1.2,1.5,0c1.9,1.8,12.9,8.3,4.4,7.4c1.3,2.7,3.5,5.5,2,9.7c1.1,1.8-0.4,5.4,0.2,6.1c0.2,0.3,0-0.7,1.3-2.1
			c1.9-2.9,5.5-6.4,11.5,3.8c5.3,4.8-11.3,0.1-6.3,4.2c4.2,5.7,2.9,10.1,0.3,16.8c3.3-0.7,6.5-8.6,6.9-1.9c0.5,1.9,5.7,8.6,2.7,7.3
			c2.5,4.3-0.5,9.5-2.4,13.1c5.1-3,1.9,12.1,0.5,11.6c-0.6,0.6-0.6,3-2.1,5.5c-0.6,7-3.1,19.2-7.1,19c-3.2-1.4-1.2-10.7-1.9-15.8
			c-1.1-7.8-5.2-15.5-13.5-17.3c-4.1-1.9-9.7,0.6-11.3,3.2c5.5-3.8,14.3,0,14.1,7.5c0.5,3.4-2.3,8.6,2.3,2.6c2.7-5.5,4.1,7.5,5.2,10
			c1.8,7.7-3.7,15.4-6.1,21.5c2.4,2.1,3.2,6.6-1.8,7.3c-2.1,1-5.7,0.6-7.8-0.3L180.6,260.8z M113.4,159.6c0-1-5,0.3,0.7,0.4l-1,0.2
			L113.4,159.6L113.4,159.6z M133.3,150.1c1.5-0.2,2.1,3,7.5,1.1c1.7-2.4,4.3-7.4,1.3-7.1C139.4,145.2,124.6,154.4,133.3,150.1z
			 M159.1,143.7c-0.4,0.5,8.4-6.4,2.8-7.3c5.3-6.6-4-5.1-6.7-2.2c7.2-2.2,7.1-4.1,3.5,2.7c5,0.8,3.1,3.5,0.5,6.6L159.1,143.7z"/>
		
			<path id="path855" inkscape:export-filename="C:\Users\adam\path857.png" inkscape:export-xdpi="400.00699" inkscape:export-ydpi="400.00699" sodipodi:nodetypes="ccscscccccccccccscccccscccccccccccscccccccccccc" d="
			M192.3,223.7c-1.2,2.8-5.2,3-5.2,3s4.9-8.1-2.1-13.1c-5-3.6-8.8-0.6-10.4-0.5c2-2.1,5.2-3.1,8-3c7,0.2,13.4,6.2,14.8,12.8
			c1.3,4.6,0.7,16.6-4,19.7C195.4,233.9,194.2,226.3,192.3,223.7L192.3,223.7z M213,220.2c-2.2-1.3-4.7-1.9-3.7-3.5
			c0.9-1.4,1.5-7.5,0.4-9.1c-0.8,0.3-2.9,2.2-4.8,2c3.3-5.4,3.8-9.5,3.1-15.2c7.4,5.2,7.3,14.5,7.4,21.8
			C215.2,216.8,213.6,224.2,213,220.2L213,220.2z M212.5,197.1c-0.9-2.5-1.4-8.5-4.7-12c-1.5,2.1-2.6,3.8-5.2,4.1
			c3.2-9.4,1.6-14.6-2.7-19.9c8.1,2.9,10.9,7.7,13.3,14.5c1.8,4.4,5.5,11.5,4.5,13C216.6,200.8,215.2,204.4,212.5,197.1z
			 M206.4,170.4c-1.8-4.1-2.7-5.8-5.8-8.7c-0.5,2.2-2.8,4.4-5,4.4c1.9-5.9,0.7-13.4-3.3-16.7c2.8-0.8,5,2.4,6.2,3.8
			c4.7,4.1,8,9.7,11.2,15.1C210.3,169.3,208.1,171.3,206.4,170.4z M187.9,149.8c0,0,1-6.8-6-11.6c4.6-0.4,9.4,2.3,12.9,4.5
			c2.4,1.4,9.2,2.7,6.4,6.3c-2.7,2.2-3.9,4-5.3,0.4c-0.8-2.1-4.4-4.9-5.7-6C190.5,146.6,190,149,187.9,149.8z M158.4,144.6
			c0.8-1.7,1.2-8.9,4.3-6.2C161.7,140.8,160.5,143.1,158.4,144.6z M158.8,137c-0.5-1.7,2.3-4.2,2.2-2.6
			C160.3,135.2,160.9,135.8,158.8,137z M183.3,136.7c-1.9-2.7-3.8-4.1-9.9-6.5c4.7,0.7,9.2,3,13.8,4
			C186.9,135.7,184.6,136.3,183.3,136.7L183.3,136.7z"/>
		
			<path id="path851" inkscape:export-filename="C:\Users\adam\path857.png" inkscape:export-xdpi="400.00699" inkscape:export-ydpi="400.00699" sodipodi:nodetypes="sccccccsscscccsszcsscccczcccccccsscccccc" d="
			M150.4,268.4c-5.6,0.9-11.1-1.6-16.1-4c-7.3-5.2-14.9-13.5-17.8-22c-2-5.1-0.6-11.7-0.5-17.1c1.1-9.7,6-20.3,13.9-26.4
			c5.1-3.8,12.1-6,18.1-8c3.7-0.8,7.9-0.3,11.4-1.8c-4.4,3.6-10.1,5.3-14.4,9.2c-4.6,4.2-7.7,9.8-9.3,15.6
			c-3.2,11.6-2.4,24.1,5.1,33.1c3.5,4.1,9.8,8.7,15.3,9.9c11.8,2.7,16.8,0.5,23.2-1.5c-4.6,8.7-14.9,11.5-23.2,13.4
			c-1.8,0.2-4.9,0.4-5.4-0.6L150.4,268.4z M175.6,262.6c3.8-5.7,0.5-4.4,5.1-2.3s14.2-2.1,7.2,1.9c-4.1,1.4-17.4,8.1-15,4.5
			L175.6,262.6z M121,262C120,261,122.1,263,121,262z M154.2,185.9c-3.6-4.1-1.9-11.2-7.1-11.6c2.6-0.2,7.8,1.5,10.8,3.4
			c3,2,9.7,0.7,10.7,0.1C166.5,180.3,157.1,187.7,154.2,185.9L154.2,185.9z M121.4,182.5c-4.2-2.9-13.4-5.2-16-10.3
			c-2.7-5.3-3.3-12.7,0-17.9c3.7-4.7,14.8-13.1,18.3-14.3c2.6-1.6-6.8,6.9-7.6,7.7c-3.6,4-8.5,10.5-7.1,15.4c1.5,5,2.7,9.4,8.6,10.5
			c3.1,4.2,12.1,4.6,17.2,4.3C133.2,180.4,125.6,183,121.4,182.5L121.4,182.5z M114,140.7C114.7,140,115.3,139.6,114,140.7z"/>
		
			<path id="path866" inkscape:export-filename="C:\Users\adam\path857.png" inkscape:export-xdpi="400.00699" inkscape:export-ydpi="400.00699" sodipodi:nodetypes="cscscc" d="
			M135.5,146.8c0,0,3.9-2.3,8.4-2.7c4.5-0.3-3.7,7.2-3.7,7.2s-1.4,0.6-3.3,0.3c-2-0.4-3.4-2.9-3.4-2.9L135.5,146.8z"/>
		
			<path id="path849" inkscape:export-filename="C:\Users\adam\path857.png" inkscape:export-xdpi="400.00699" inkscape:export-ydpi="400.00699" sodipodi:nodetypes="ccszcssccsccscccccczccccccccczccccczzccccccccccccscccczcccsccssscszscscccccccsccsczccccscccccsccc" class="st0" d="
			M147.2,274.9c-8.8-1.3-17.7-4.3-24-10.8c-10.1-9.6-17.2-23.3-16.2-37.5c0.7-10.3,5.2-19.6,12.7-27.5c7.6-7.9,18.5-11.4,29.1-13.9
			c-0.4-0.2-0.7,0-1.6-1c-0.4-0.4-1.1-1.4-0.9-2.5c1-4.8-8-1.1-12.4,1.1c-6.4,2.6-14,6.6-20.9-0.3c-6.6-1.8-9.7-7.4-12.3-13.1
			c-2.9-6.6-1.6-15.2,3.7-20.5c4.6-5,10.4-8.8,15.7-13c8.2-5.6,18.9-12.6,27.6-17.4c2.8-1.5,12.5-5.3,12.3,3.3
			c3.5-0.6,5.6,0.8,6.5,2.8c8.8,0.6,23.3,4.5,31,8.7c-1.1,0.5-2.6,1.2-3.4,2.6c7,3.3,15.4,11.4,19.5,17.8c-2.8-0.4-4.6-0.1-6.1,0.4
			c0.7,1.7,5.3,7.1,7.4,10.4c2.1,3.3,6.4,9.9,7.5,14c-2.5-0.7-4.1-0.8-6.5-0.1c4.6,9.1,8.9,21.9,9.7,33c-1.5-1.2-3.1-2.2-5.1-2.5
			c0.4,7.9,0.6,17.1-3.2,24.1c-1.6-2.3-2.2-2.9-3.5-4c-1.8,7.7-6.9,16.6-12.7,21.9c-0.6-1.7-0.9-2.8-2.3-4.1c-1.2,1.4-2.9,3-4.9,5.7
			c4.5,2.8,2.7,8.4-1.8,11.5c-4.5,3.1-12.7,6-19.9,8.5C164.1,274.5,155.7,275.6,147.2,274.9L147.2,274.9z M179.2,255.6
			c1.7,3.1-3.7,9.5-4.1,10.3c4.9-1.1,7.2-2.5,10.9-3.8c3.6-1.3,4.8-3.5,4.7-4.9c-0.1-1.5-1.4-2.8-3.8-3.8c3.5-5.6,6.5-10.7,8.5-16
			c2.1-6.2,2.1-19.3-6-24.7c-4.2-3.3-12.1-2.4-14.9,0.5c3.6-6.9,14.6-6.1,20.4-1.2c9.3,8.8,8.1,25.5,6.8,29.5
			c5.2-6.6,7.5-17.1,5.7-25.9c4.4,1.8,5.9,3.9,5.9,3.9s1.9-16.2-5.2-24.8c3.3-0.4,7.3,1,8.7,1.8c-1.2-4.7-6.1-19.7-16.9-27.1
			c2.6-0.9,7.5-1.4,9.5-0.9c-0.7-2.1-4.8-7.6-7.1-10.6c-2.9-3.7-6.6-6.3-10-8.4c4.2-1.5,6.3-1.7,9-1.5c-5.3-4.7-12.7-8.3-19.3-9.8
			c1.3-2.5,3.6-3.8,3.6-3.8s-14.7-5.6-21.8-5.9c-7.1-0.3-14.8,3.5-14.8,3.5c3.5-4.3,6.9-5.4,6.9-5.4s-0.2-0.8-1.4-2.1
			c0.9-0.5,0.8-1.9,0.2-2.5c-2.1-2.3-14,7-17.6,9.1c-5.6,3.2-11,6.9-16,10.9c-5.2,4.3-11.9,7.8-15.1,13.9
			c-3.6,6.8-1.4,13.3,3.5,18.6c1.6,1.7,4.1,2.6,6.3,3c2.7,3.8,10.8,3.7,16.3,1.2c5.8-2.7,14.9-6.5,18.3-3.8c2,1.6,1.1,3.7,2.2,5.6
			c1.2,1.9,4.2,2.5,7.2,1.5c7.7-2.6,17.5-10.6,11.9-24.6c0.9,0,6.8,4.8,5.6,13.9c-1.4,10.1-9.7,14.7-19.5,18.6
			c-10.5,4.2-23.2,5.1-30.9,14.4c-7.2,8.2-11.1,16.7-10.6,27.4c-0.1,10,7.6,21.3,14.3,28.1c5.3,5.1,12.9,7.3,20,8.3
			C163.1,269,174,262.9,179.2,255.6L179.2,255.6z M112.6,160.7c-6.1-2.9,6.2-6.2,1.4,0C113.8,161,113,160.9,112.6,160.7z
			 M129.9,151.6c2.4-6.6,11.2-7.6,16.5-8.5c0.6,2.5-4.1,8.4-6,8.6c-0.1,0-0.2,0-0.3-0.2c-0.1-0.3,0.7-0.7,1-1
			c1.8-1.6,3.4-3.9,3.3-5.4c-1.7-0.1-4.9,0.4-6,1.7c1.2,0.8,1.4,2.2,0.7,3.7s-2.8,2-5.7-0.4C132.4,150.7,131.4,151.7,129.9,151.6
			L129.9,151.6z M158.8,137c6.3-5.7-3.9-1.4-6.1-1.1c0.8-3.8,9.5-5.3,10.3-4.4c0.7,0.8,1.1,2.6-0.5,4.7c8-0.3-1.9,8.3-4.1,8.4
			C161.5,140.7,164.2,137.8,158.8,137L158.8,137z"/>
	</g>
</g>
</svg>
